<svg width="38" height="38" viewBox="0 0 38 38" fill="none" xmlns="http://www.w3.org/2000/svg">
<path d="M34.2891 7.125H22.0198C21.6099 7.125 21.2776 7.45728 21.2776 7.86719C21.2776 8.2771 21.6099 8.60938 22.0198 8.60938H34.2891C35.5168 8.60938 36.5157 9.60823 36.5157 10.836V25.6796C36.5157 26.9074 35.5168 27.9062 34.2891 27.9062H31.7253C31.3154 27.9062 30.9831 28.2385 30.9831 28.6484C30.9831 29.0583 31.3154 29.3906 31.7253 29.3906H34.2891C36.3353 29.3906 38.0001 27.7259 38.0001 25.6796V10.836C38.0001 8.78974 36.3353 7.125 34.2891 7.125Z" fill="#156C08"/>
<path d="M16.4519 27.9062H3.71096C2.48323 27.9062 1.48438 26.9074 1.48438 25.6796V10.836C1.48438 9.60823 2.48323 8.60938 3.71096 8.60938H16.0811C16.4909 8.60938 16.8233 8.2771 16.8233 7.86719C16.8233 7.45728 16.4909 7.125 16.0811 7.125H3.71096C1.66474 7.125 0 8.78974 0 10.836V25.6796C0 27.7259 1.66474 29.3906 3.71096 29.3906H16.4519C16.8617 29.3906 17.1941 29.0583 17.1941 28.6484C17.1941 28.2385 16.8617 27.9062 16.4519 27.9062Z" fill="#156C08"/>
<path d="M21.2286 13.0625C20.8187 13.0625 20.4864 13.3948 20.4864 13.8047V20.1615C20.4864 21.158 19.6756 21.9687 18.6791 21.9687C17.6825 21.9687 16.8718 21.158 16.8718 20.1615V13.8047C16.8718 13.3948 16.5395 13.0625 16.1296 13.0625C15.7198 13.0625 15.3875 13.3948 15.3875 13.8047V20.1615C15.3875 21.9765 16.8641 23.4531 18.6791 23.4531C20.4942 23.4531 21.9708 21.9765 21.9708 20.1615V13.8047C21.9708 13.3948 21.6384 13.0625 21.2286 13.0625Z" fill="#156C08"/>
<path d="M11.237 18.2578C11.8546 17.7134 12.2453 16.9173 12.2453 16.0313C12.2453 14.3943 10.9135 13.0625 9.27653 13.0625H6.27466C5.86482 13.0625 5.53247 13.3948 5.53247 13.8047V22.7109C5.53247 23.1208 5.86482 23.4531 6.27466 23.4531H9.27661C10.9136 23.4531 12.2454 22.1213 12.2454 20.4843C12.2453 19.5984 11.8546 18.8022 11.237 18.2578ZM9.27661 21.9688H7.01685V19H9.27661C10.0951 19 10.761 19.6659 10.761 20.4844C10.7609 21.3029 10.095 21.9688 9.27661 21.9688ZM9.27661 17.5157H7.01685V14.5469H9.27661C10.0951 14.5469 10.761 15.2128 10.761 16.0313C10.761 16.8498 10.095 17.5157 9.27661 17.5157Z" fill="#156C08"/>
<path d="M32.0657 13.1452C31.7017 12.9571 31.2538 13.0999 31.0657 13.4641L28.7356 17.9766L26.4055 13.4641C26.2175 13.0998 25.7697 12.957 25.4055 13.1452C25.0413 13.3333 24.8985 13.781 25.0865 14.1451L27.9933 19.7745V22.7109C27.9934 23.1208 28.3257 23.453 28.7356 23.453C29.1455 23.453 29.4778 23.1208 29.4778 22.7109V19.7745L32.3847 14.1451C32.5727 13.781 32.4299 13.3333 32.0657 13.1452Z" fill="#156C08"/>
<path d="M19.0007 0C18.5909 0 18.2585 0.332279 18.2585 0.742192V5.17441C18.2585 5.58433 18.5908 5.91661 19.0007 5.91661C19.4106 5.91661 19.7429 5.58433 19.7429 5.17441V0.742192C19.7429 0.332279 19.4105 0 19.0007 0Z" fill="#156C08"/>
<path d="M25.2287 3.2745C24.9388 2.98467 24.469 2.98467 24.179 3.2745L22.3719 5.08159C22.0821 5.37141 22.0821 5.84137 22.3719 6.13127C22.5169 6.27622 22.7068 6.34866 22.8968 6.34866C23.0868 6.34866 23.2766 6.27622 23.4216 6.13127L25.2287 4.32418C25.5185 4.03435 25.5185 3.5644 25.2287 3.2745Z" fill="#156C08"/>
<path d="M15.6296 5.07785L13.8225 3.27084C13.5326 2.98101 13.0628 2.98101 12.7728 3.27084C12.483 3.56066 12.483 4.03062 12.7728 4.32052L14.58 6.12761C14.7249 6.27256 14.9148 6.34499 15.1048 6.34499C15.2947 6.34499 15.4846 6.27256 15.6296 6.12761C15.9194 5.83771 15.9194 5.36775 15.6296 5.07785Z" fill="#156C08"/>
<path d="M31.0539 33.3745L27.8181 30.1388L29.1009 28.8561C29.2883 28.6686 29.3616 28.3953 29.2929 28.1392C29.2243 27.8831 29.0243 27.6831 28.7681 27.6144L19.8693 25.23C19.6131 25.1612 19.3399 25.2346 19.1525 25.422C18.965 25.6095 18.8917 25.8828 18.9604 26.139L21.3448 35.0378C21.4135 35.2939 21.6135 35.494 21.8696 35.5626C22.1258 35.6313 22.399 35.558 22.5865 35.3705L23.4099 34.5472L26.6455 37.7829C26.7905 37.9278 26.9804 38.0003 27.1704 38.0003C27.3603 38.0003 27.5502 37.9278 27.6952 37.7829L31.0539 34.4241C31.3437 34.1343 31.3437 33.6644 31.0539 33.3745ZM27.1704 36.2084L23.9347 32.9727C23.7897 32.8278 23.5998 32.7554 23.4099 32.7554C23.22 32.7554 23.03 32.8279 22.8851 32.9727L22.4459 33.4119L20.7269 26.9965L27.1423 28.7155L26.2438 29.6141C25.954 29.9039 25.954 30.3739 26.2438 30.6637L29.4795 33.8994L27.1704 36.2084Z" fill="#156C08"/>
<path d="M19.5018 7.34246C19.3637 7.20441 19.1723 7.125 18.9763 7.125C18.7811 7.125 18.5896 7.20441 18.4516 7.34246C18.3136 7.48051 18.2341 7.672 18.2341 7.86719C18.2341 8.06239 18.3135 8.25387 18.4516 8.39192C18.5903 8.52997 18.7811 8.60938 18.9763 8.60938C19.1723 8.60938 19.363 8.52997 19.5018 8.39192C19.6398 8.25387 19.7185 8.06239 19.7185 7.86719C19.7185 7.672 19.6398 7.48051 19.5018 7.34246Z" fill="#156C08"/>
</svg>
