<svg width="38" height="38" viewBox="0 0 38 38" fill="none" xmlns="http://www.w3.org/2000/svg">
<path d="M10.1326 36.0976H13.9323C14.282 36.0976 14.5656 35.8141 14.5656 35.4643C14.5656 35.1146 14.282 34.8311 13.9323 34.8311H10.1326C9.78282 34.8311 9.49927 35.1146 9.49927 35.4643C9.49927 35.8141 9.78282 36.0976 10.1326 36.0976Z" fill="#156C08"/>
<path d="M3.16649 11.3993C3.51623 11.3993 3.79978 11.1158 3.79978 10.766V7.59959H6.96623C7.31597 7.59959 7.59952 7.31603 7.59952 6.9663C7.59952 6.61656 7.31597 6.33301 6.96623 6.33301H3.16649C2.81676 6.33301 2.5332 6.61656 2.5332 6.9663V10.766C2.5332 11.1159 2.81676 11.3993 3.16649 11.3993Z" fill="#156C08"/>
<path d="M37.8587 18.6029L33.1724 12.745C32.8125 12.2937 32.2664 12.0314 31.6892 12.0325H24.065V3.16645C24.063 1.41857 22.6464 0.00205819 20.8986 0H3.16645C1.41857 0.00205819 0.00205819 1.41857 0 3.16645V34.8309C0.00205819 36.5788 1.41857 37.9953 3.16645 37.9974H20.8986C22.6464 37.9953 24.063 36.5788 24.065 34.8309V25.9649H31.6892C32.2665 25.9661 32.8127 25.7034 33.1724 25.2518L37.8587 19.3945C38.0459 19.1625 38.0483 18.8331 37.8587 18.6029ZM1.26658 3.16645C1.26658 2.11717 2.11717 1.26658 3.16645 1.26658H20.8986C21.9478 1.26658 22.7984 2.11717 22.7984 3.16645V3.79974H1.26658V3.16645ZM22.7984 34.8309C22.7984 35.8802 21.9478 36.7308 20.8986 36.7308H3.16645C2.11717 36.7308 1.26658 35.8802 1.26658 34.8309V34.1976H22.7984V34.8309ZM22.7984 32.9311H1.26658V5.06632H22.7984V12.0325H8.23277C7.88303 12.0325 7.59948 12.3161 7.59948 12.6658V25.3316C7.59948 25.6813 7.88303 25.9649 8.23277 25.9649H22.7984V32.9311ZM32.1838 24.4602C32.0637 24.6106 31.8817 24.6982 31.6892 24.6983H8.86606V13.2991H31.6892C31.8816 13.299 32.0635 13.3864 32.1838 13.5366L36.5529 18.9987L32.1838 24.4602Z" fill="#156C08"/>
<path d="M31.0312 18.9987C31.0312 20.048 31.8818 20.8986 32.9311 20.8986C33.9804 20.8986 34.831 20.048 34.831 18.9987C34.831 17.9495 33.9804 17.0989 32.9311 17.0989C31.8818 17.0989 31.0312 17.9495 31.0312 18.9987ZM32.9311 18.3655C33.2809 18.3655 33.5644 18.649 33.5644 18.9987C33.5644 19.3485 33.2809 19.632 32.9311 19.632C32.5814 19.632 32.2978 19.3485 32.2978 18.9987C32.2978 18.649 32.5814 18.3655 32.9311 18.3655Z" fill="#156C08"/>
<path d="M23.8639 14.1179C23.6185 13.8809 23.2294 13.8809 22.9839 14.1179L14.1179 22.984C13.8663 23.2269 13.8593 23.6279 14.1024 23.8795C14.3453 24.131 14.7463 24.138 14.9978 23.895C15.0031 23.8899 15.0083 23.8847 15.0134 23.8795L23.8794 15.0134C24.1224 14.7619 24.1155 14.361 23.8639 14.1179Z" fill="#156C08"/>
<path d="M15.8322 18.3654C16.8815 18.3654 17.7321 17.5148 17.7321 16.4655C17.7321 15.4163 16.8815 14.5657 15.8322 14.5657C14.783 14.5657 13.9324 15.4163 13.9324 16.4655C13.9324 17.5148 14.783 18.3654 15.8322 18.3654ZM15.8322 15.8323C16.182 15.8323 16.4655 16.1158 16.4655 16.4655C16.4655 16.8153 16.182 17.0988 15.8322 17.0988C15.4825 17.0988 15.199 16.8153 15.199 16.4655C15.199 16.1158 15.4825 15.8323 15.8322 15.8323Z" fill="#156C08"/>
<path d="M22.1653 19.6321C21.116 19.6321 20.2654 20.4827 20.2654 21.5319C20.2654 22.5812 21.116 23.4318 22.1653 23.4318C23.2145 23.4318 24.0651 22.5812 24.0651 21.5319C24.0651 20.4827 23.2145 19.6321 22.1653 19.6321ZM22.1653 22.1652C21.8155 22.1652 21.532 21.8817 21.532 21.5319C21.532 21.1822 21.8155 20.8987 22.1653 20.8987C22.515 20.8987 22.7985 21.1822 22.7985 21.5319C22.7985 21.8817 22.515 22.1652 22.1653 22.1652Z" fill="#156C08"/>
<path d="M15.8322 1.8999H12.0325C11.6827 1.8999 11.3992 2.18346 11.3992 2.53319C11.3992 2.88293 11.6827 3.16648 12.0325 3.16648H15.8322C16.1819 3.16648 16.4655 2.88293 16.4655 2.53319C16.4655 2.18346 16.1819 1.8999 15.8322 1.8999Z" fill="#156C08"/>
<path d="M9.49923 1.8999H8.23266C7.88292 1.8999 7.59937 2.18346 7.59937 2.53319C7.59937 2.88293 7.88292 3.16648 8.23266 3.16648H9.49923C9.84897 3.16648 10.1325 2.88293 10.1325 2.53319C10.1325 2.18346 9.84897 1.8999 9.49923 1.8999Z" fill="#156C08"/>
<path d="M6.96623 30.3979H3.79978V27.2314C3.79978 26.8817 3.51623 26.5981 3.16649 26.5981C2.81676 26.5981 2.5332 26.8817 2.5332 27.2314V31.0312C2.5332 31.3809 2.81676 31.6645 3.16649 31.6645H6.96623C7.31597 31.6645 7.59952 31.3809 7.59952 31.0312C7.59952 30.6814 7.31597 30.3979 6.96623 30.3979Z" fill="#156C08"/>
</svg>
