<svg width="38" height="34" viewBox="0 0 38 34" fill="none" xmlns="http://www.w3.org/2000/svg">
<path d="M26.9975 18.0684H21.8341C20.4209 18.0684 19.2717 19.2175 19.2717 20.6307V24.5906C19.2717 26.0038 20.4209 27.153 21.8341 27.153H26.9975C28.4107 27.153 29.5598 26.0038 29.5598 24.5906V20.6307C29.5598 19.2175 28.4107 18.0684 26.9975 18.0684ZM27.6963 24.5906C27.6963 24.9789 27.378 25.2894 26.9975 25.2894H21.8341C21.4458 25.2894 21.1352 24.9711 21.1352 24.5906V20.6307C21.1352 20.2425 21.4536 19.9319 21.8341 19.9319H26.9975C27.3857 19.9319 27.6963 20.2502 27.6963 20.6307V24.5906Z" fill="#156C08"/>
<path d="M38 10.8705C38 10.7074 37.9612 10.5521 37.8758 10.4123L32.2231 0.473641C32.0601 0.186351 31.7495 0 31.4156 0H6.57662C6.24275 0 5.93216 0.178586 5.76911 0.473641L0.124234 10.4123C0.0465877 10.5521 0 10.7074 0 10.8705C0 13.0989 1.34328 15.009 3.26114 15.8553V32.2464C3.26114 32.7589 3.68043 33.1782 4.19289 33.1782H9.34083C9.34859 33.1782 9.35635 33.1782 9.36412 33.1782H16.5852C16.593 33.1782 16.6007 33.1782 16.6085 33.1782H33.7993C34.3118 33.1782 34.7311 32.7589 34.7311 32.2464V15.9718C34.7311 15.933 34.7311 15.9019 34.7233 15.8709C36.649 15.0245 38 13.1067 38 10.8705ZM7.12015 1.87127H30.8721L35.2902 9.64365H2.70985L7.12015 1.87127ZM27.0441 11.4994C26.7491 13.1765 25.2816 14.4499 23.519 14.4499C21.7564 14.4499 20.2889 13.1765 19.9939 11.4994H27.0441ZM18.0139 11.4994C17.7188 13.1765 16.2513 14.4499 14.4888 14.4499C12.7262 14.4499 11.2587 13.1765 10.9559 11.4994H18.0139ZM1.92562 11.4994H8.98365C8.6886 13.1765 7.21332 14.4499 5.45076 14.4499C3.68819 14.4577 2.22068 13.1765 1.92562 11.4994ZM15.6535 31.3147H10.2959V21.2595C10.2959 20.5296 10.886 19.9318 11.6236 19.9318H14.3335C15.0633 19.9318 15.6612 20.5219 15.6612 21.2595V31.3147H15.6535ZM32.8676 31.3147H17.517V21.2595C17.517 19.5047 16.0883 18.0682 14.3257 18.0682H11.6159C9.86106 18.0682 8.4246 19.4969 8.4246 21.2595V31.3224H5.12464V16.3134C5.23335 16.3212 5.34205 16.3212 5.45076 16.3212C7.32979 16.3212 8.99142 15.3662 9.96976 13.9142C10.9481 15.3662 12.6097 16.3212 14.4888 16.3212C16.3678 16.3212 18.0217 15.3662 19.0078 13.9142C19.9861 15.3662 21.6477 16.3212 23.519 16.3212C25.398 16.3212 27.0519 15.3662 28.0302 13.9142C29.0086 15.3662 30.6702 16.3212 32.5492 16.3212C32.658 16.3212 32.7589 16.3134 32.8676 16.3134V31.3147ZM32.5492 14.4577C30.7867 14.4577 29.3192 13.1843 29.0241 11.5072H36.0821C35.7793 13.1765 34.3118 14.4577 32.5492 14.4577Z" fill="#156C08"/>
</svg>
