<svg width="37" height="37" viewBox="0 0 37 37" fill="none" xmlns="http://www.w3.org/2000/svg">
<mask id="path-1-inside-1" fill="white">
<path d="M29.4844 33.5312C31.7159 33.5312 33.5312 31.7158 33.5312 29.4842C33.5312 27.2526 31.7159 25.4372 29.4844 25.4372C27.2528 25.4372 25.4375 27.2526 25.4375 29.4842C25.4375 31.7158 27.2528 33.5312 29.4844 33.5312ZM29.4844 26.5935C31.0777 26.5935 32.375 27.8897 32.375 29.4842C32.375 31.0787 31.0777 32.3749 29.4844 32.3749C27.8911 32.3749 26.5938 31.0787 26.5938 29.4842C26.5938 27.8897 27.8911 26.5935 29.4844 26.5935ZM21.6589 27.692C21.6589 29.3697 22.0717 31.4742 22.6255 32.6651C23.7586 35.5408 25.9879 37 29.2531 37C33.5243 37 37 33.5242 37 29.2529C37 25.0984 33.7417 22.084 29.2531 22.084C24.1506 22.084 22.4856 19.3425 22.4197 19.2292C22.3966 19.1899 22.37 19.1529 22.3387 19.1193L4.58453 0.181852C4.42266 0.00956696 4.17059 -0.0459343 3.94975 0.0396301C3.73006 0.126351 3.58437 0.340262 3.58437 0.577299C3.58437 11.7365 11.026 17.5919 16.4592 21.8655C19.3649 24.1515 21.6589 25.9552 21.6589 27.692ZM4.7915 2.09318L21.4554 19.8675C21.7652 20.3577 23.8187 23.2403 29.2531 23.2403C33.0722 23.2403 35.8438 25.7691 35.8438 29.2529C35.8438 32.8883 32.8872 35.8437 29.2531 35.8437C26.4723 35.8437 24.6559 34.6643 23.6881 32.2084C23.2649 31.2996 22.8151 29.4067 22.8151 27.692C22.8151 25.3945 20.3257 23.4357 17.1749 20.9567C12.1834 17.03 5.43669 11.7238 4.7915 2.09318ZM3.46875 29.4842C3.46875 31.7158 5.28406 33.5312 7.51562 33.5312C9.74719 33.5312 11.5625 31.7158 11.5625 29.4842C11.5625 27.2526 9.74719 25.4372 7.51562 25.4372C5.28406 25.4372 3.46875 27.2526 3.46875 29.4842ZM10.4062 29.4842C10.4062 31.0787 9.10894 32.3749 7.51562 32.3749C5.92231 32.3749 4.625 31.0787 4.625 29.4842C4.625 27.8897 5.92231 26.5935 7.51562 26.5935C9.10894 26.5935 10.4062 27.8897 10.4062 29.4842ZM23.8581 17.8879C23.6222 18.103 23.6048 18.4684 23.8199 18.7042C23.9344 18.8291 24.0905 18.8927 24.2477 18.8927C24.3865 18.8927 24.5264 18.843 24.6374 18.7412C28.7247 15.018 33.4156 9.58932 33.4156 0.577299C33.4156 0.340262 33.2711 0.126351 33.0503 0.0396301C32.8306 -0.044778 32.5785 0.00956696 32.4155 0.181852L19.7892 13.6478C19.5707 13.8803 19.5823 14.2468 19.8158 14.4642C20.0482 14.6816 20.4136 14.6723 20.6333 14.4387L32.212 2.08971C31.7194 9.75582 27.5338 14.5382 23.8581 17.8879ZM12.6158 21.8482C12.913 21.7325 13.061 21.3984 12.9465 21.1012C12.8321 20.804 12.4956 20.6537 12.1984 20.7717C11.9545 20.8665 11.6908 20.9833 11.4076 21.1093C10.4317 21.5429 9.21647 22.084 7.74687 22.084C3.25831 22.084 0 25.0984 0 29.2529C0 33.5242 3.47569 37 7.74687 37C11.0121 37 13.2414 35.5408 14.3595 32.6963C14.9445 31.4418 15.0312 28.6956 15.0312 27.1717C15.0312 26.8606 15.9123 26.1969 16.4396 25.8003C16.9263 25.4349 17.4293 25.0557 17.7762 24.6648C17.9878 24.4255 17.9658 24.0601 17.7276 23.8485C17.4894 23.6358 17.1229 23.6589 16.9113 23.8971C16.6408 24.2035 16.1852 24.5457 15.7435 24.8776C14.7827 25.6014 13.875 26.2836 13.875 27.1717C13.875 29.5675 13.6646 31.451 13.298 32.2408C12.3441 34.6643 10.5277 35.8437 7.74687 35.8437C4.11278 35.8437 1.15625 32.8871 1.15625 29.2529C1.15625 25.7679 3.92778 23.2403 7.74687 23.2403C9.46275 23.2403 10.8583 22.6182 11.8782 22.1638C12.1418 22.0459 12.3881 21.9372 12.6158 21.8482ZM17.5681 19.6374C17.5681 20.1521 17.9853 20.5693 18.5 20.5693C19.0147 20.5693 19.4319 20.1521 19.4319 19.6374C19.4319 19.1226 19.0147 18.7054 18.5 18.7054C17.9853 18.7054 17.5681 19.1226 17.5681 19.6374Z"/>
</mask>
<path d="M29.4844 33.5312C31.7159 33.5312 33.5312 31.7158 33.5312 29.4842C33.5312 27.2526 31.7159 25.4372 29.4844 25.4372C27.2528 25.4372 25.4375 27.2526 25.4375 29.4842C25.4375 31.7158 27.2528 33.5312 29.4844 33.5312ZM29.4844 26.5935C31.0777 26.5935 32.375 27.8897 32.375 29.4842C32.375 31.0787 31.0777 32.3749 29.4844 32.3749C27.8911 32.3749 26.5938 31.0787 26.5938 29.4842C26.5938 27.8897 27.8911 26.5935 29.4844 26.5935ZM21.6589 27.692C21.6589 29.3697 22.0717 31.4742 22.6255 32.6651C23.7586 35.5408 25.9879 37 29.2531 37C33.5243 37 37 33.5242 37 29.2529C37 25.0984 33.7417 22.084 29.2531 22.084C24.1506 22.084 22.4856 19.3425 22.4197 19.2292C22.3966 19.1899 22.37 19.1529 22.3387 19.1193L4.58453 0.181852C4.42266 0.00956696 4.17059 -0.0459343 3.94975 0.0396301C3.73006 0.126351 3.58437 0.340262 3.58437 0.577299C3.58437 11.7365 11.026 17.5919 16.4592 21.8655C19.3649 24.1515 21.6589 25.9552 21.6589 27.692ZM4.7915 2.09318L21.4554 19.8675C21.7652 20.3577 23.8187 23.2403 29.2531 23.2403C33.0722 23.2403 35.8438 25.7691 35.8438 29.2529C35.8438 32.8883 32.8872 35.8437 29.2531 35.8437C26.4723 35.8437 24.6559 34.6643 23.6881 32.2084C23.2649 31.2996 22.8151 29.4067 22.8151 27.692C22.8151 25.3945 20.3257 23.4357 17.1749 20.9567C12.1834 17.03 5.43669 11.7238 4.7915 2.09318ZM3.46875 29.4842C3.46875 31.7158 5.28406 33.5312 7.51562 33.5312C9.74719 33.5312 11.5625 31.7158 11.5625 29.4842C11.5625 27.2526 9.74719 25.4372 7.51562 25.4372C5.28406 25.4372 3.46875 27.2526 3.46875 29.4842ZM10.4062 29.4842C10.4062 31.0787 9.10894 32.3749 7.51562 32.3749C5.92231 32.3749 4.625 31.0787 4.625 29.4842C4.625 27.8897 5.92231 26.5935 7.51562 26.5935C9.10894 26.5935 10.4062 27.8897 10.4062 29.4842ZM23.8581 17.8879C23.6222 18.103 23.6048 18.4684 23.8199 18.7042C23.9344 18.8291 24.0905 18.8927 24.2477 18.8927C24.3865 18.8927 24.5264 18.843 24.6374 18.7412C28.7247 15.018 33.4156 9.58932 33.4156 0.577299C33.4156 0.340262 33.2711 0.126351 33.0503 0.0396301C32.8306 -0.044778 32.5785 0.00956696 32.4155 0.181852L19.7892 13.6478C19.5707 13.8803 19.5823 14.2468 19.8158 14.4642C20.0482 14.6816 20.4136 14.6723 20.6333 14.4387L32.212 2.08971C31.7194 9.75582 27.5338 14.5382 23.8581 17.8879ZM12.6158 21.8482C12.913 21.7325 13.061 21.3984 12.9465 21.1012C12.8321 20.804 12.4956 20.6537 12.1984 20.7717C11.9545 20.8665 11.6908 20.9833 11.4076 21.1093C10.4317 21.5429 9.21647 22.084 7.74687 22.084C3.25831 22.084 0 25.0984 0 29.2529C0 33.5242 3.47569 37 7.74687 37C11.0121 37 13.2414 35.5408 14.3595 32.6963C14.9445 31.4418 15.0312 28.6956 15.0312 27.1717C15.0312 26.8606 15.9123 26.1969 16.4396 25.8003C16.9263 25.4349 17.4293 25.0557 17.7762 24.6648C17.9878 24.4255 17.9658 24.0601 17.7276 23.8485C17.4894 23.6358 17.1229 23.6589 16.9113 23.8971C16.6408 24.2035 16.1852 24.5457 15.7435 24.8776C14.7827 25.6014 13.875 26.2836 13.875 27.1717C13.875 29.5675 13.6646 31.451 13.298 32.2408C12.3441 34.6643 10.5277 35.8437 7.74687 35.8437C4.11278 35.8437 1.15625 32.8871 1.15625 29.2529C1.15625 25.7679 3.92778 23.2403 7.74687 23.2403C9.46275 23.2403 10.8583 22.6182 11.8782 22.1638C12.1418 22.0459 12.3881 21.9372 12.6158 21.8482ZM17.5681 19.6374C17.5681 20.1521 17.9853 20.5693 18.5 20.5693C19.0147 20.5693 19.4319 20.1521 19.4319 19.6374C19.4319 19.1226 19.0147 18.7054 18.5 18.7054C17.9853 18.7054 17.5681 19.1226 17.5681 19.6374Z" fill="#157408"/>
<path d="M22.6255 32.6651L36.5811 27.166L36.4163 26.7477L36.2267 26.34L22.6255 32.6651ZM22.4197 19.2292L35.386 11.6877L35.3675 11.6558L35.3488 11.624L22.4197 19.2292ZM22.3387 19.1193L33.3173 8.89819L33.2995 8.87913L33.2817 8.86013L22.3387 19.1193ZM4.58453 0.181852L15.5275 -10.0774L15.5219 -10.0834L15.5163 -10.0893L4.58453 0.181852ZM3.94975 0.0396301L-1.46938 -13.9473L-1.51367 -13.9301L-1.55786 -13.9127L3.94975 0.0396301ZM16.4592 21.8655L25.7339 10.0765L25.7328 10.0756L16.4592 21.8655ZM21.4554 19.8675L34.1349 11.8532L33.3733 10.6482L32.3983 9.60818L21.4554 19.8675ZM23.6881 32.2084L37.6437 26.7091L37.4775 26.2874L37.2862 25.8766L23.6881 32.2084ZM17.1749 20.9567L26.4502 9.16815L26.4493 9.1674L17.1749 20.9567ZM23.8581 17.8879L13.7545 6.80108L13.7516 6.80369L23.8581 17.8879ZM23.8199 18.7042L12.7355 28.8104L12.7489 28.8252L12.7625 28.84L23.8199 18.7042ZM24.6374 18.7412L14.5362 7.65219L14.5188 7.66809L14.5014 7.68404L24.6374 18.7412ZM33.0503 0.0396301L38.5329 -13.9225L38.4816 -13.9426L38.4301 -13.9624L33.0503 0.0396301ZM32.4155 0.181852L21.5203 -10.1281L21.4967 -10.1031L21.4732 -10.0781L32.4155 0.181852ZM19.7892 13.6478L30.7171 23.9231L30.7243 23.9154L30.7315 23.9078L19.7892 13.6478ZM19.8158 14.4642L30.0624 3.50934L30.0488 3.49666L30.0352 3.48401L19.8158 14.4642ZM20.6333 14.4387L31.5596 24.7157L31.5676 24.7071L31.5757 24.6985L20.6333 14.4387ZM32.212 2.08971L47.1811 3.0515L49.8614 -38.6642L21.2696 -8.1701L32.212 2.08971ZM12.1984 20.7717L17.632 34.7529L17.6821 34.7335L17.732 34.7137L12.1984 20.7717ZM11.4076 21.1093L17.4982 34.8171L17.5049 34.8141L11.4076 21.1093ZM14.3595 32.6963L0.765066 26.3566L0.568982 26.7771L0.399257 27.2089L14.3595 32.6963ZM16.4396 25.8003L7.43487 13.8038L7.42874 13.8084L7.42262 13.813L16.4396 25.8003ZM17.7762 24.6648L28.9948 34.6219L29.0046 34.6109L29.0144 34.5998L17.7762 24.6648ZM17.7276 23.8485L7.7351 35.0355L7.75024 35.0491L7.76542 35.0625L17.7276 23.8485ZM16.9113 23.8971L5.69706 13.9351L5.68218 13.9519L5.66735 13.9687L16.9113 23.8971ZM15.7435 24.8776L6.73333 12.8852L6.72567 12.891L6.71801 12.8968L15.7435 24.8776ZM13.298 32.2408L-0.307973 25.926L-0.496074 26.3313L-0.659719 26.747L13.298 32.2408ZM11.8782 22.1638L17.9833 35.8652L17.9935 35.8606L18.0038 35.856L11.8782 22.1638ZM29.4844 48.5312C40.0005 48.5312 48.5312 39.9998 48.5312 29.4842H18.5312C18.5312 23.4319 23.4313 18.5312 29.4844 18.5312V48.5312ZM48.5312 29.4842C48.5312 18.9686 40.0005 10.4372 29.4844 10.4372V40.4372C23.4313 40.4372 18.5312 35.5365 18.5312 29.4842H48.5312ZM29.4844 10.4372C18.9682 10.4372 10.4375 18.9686 10.4375 29.4842H40.4375C40.4375 35.5365 35.5374 40.4372 29.4844 40.4372V10.4372ZM10.4375 29.4842C10.4375 39.9998 18.9682 48.5312 29.4844 48.5312V18.5312C35.5374 18.5312 40.4375 23.4319 40.4375 29.4842H10.4375ZM29.4844 41.5935C22.797 41.5935 17.375 36.1776 17.375 29.4842H47.375C47.375 19.6018 39.3584 11.5935 29.4844 11.5935V41.5935ZM17.375 29.4842C17.375 22.7909 22.797 17.3749 29.4844 17.3749V47.3749C39.3584 47.3749 47.375 39.3666 47.375 29.4842H17.375ZM29.4844 17.3749C36.1717 17.3749 41.5938 22.7909 41.5938 29.4842H11.5938C11.5938 39.3666 19.6104 47.3749 29.4844 47.3749V17.3749ZM41.5938 29.4842C41.5938 36.1776 36.1717 41.5935 29.4844 41.5935V11.5935C19.6104 11.5935 11.5938 19.6018 11.5938 29.4842H41.5938ZM6.65888 27.692C6.65888 31.0102 7.34413 35.3773 9.02428 38.9902L36.2267 26.34C36.4746 26.873 36.5858 27.2362 36.6154 27.3354C36.6539 27.4646 36.662 27.515 36.6575 27.4916C36.6564 27.4859 36.6546 27.4758 36.6528 27.4638C36.6509 27.4518 36.6502 27.445 36.6503 27.4459C36.6504 27.4464 36.6522 27.4634 36.6541 27.4982C36.656 27.5321 36.6589 27.597 36.6589 27.692H6.65888ZM8.66985 38.1642C10.1817 42.0009 12.8137 45.772 16.928 48.4635C20.9837 51.1167 25.3758 52 29.2531 52V22C29.8652 22 31.51 22.1537 33.3516 23.3584C35.2516 24.6014 36.2025 26.205 36.5811 27.166L8.66985 38.1642ZM29.2531 52C41.8089 52 52 41.8082 52 29.2529H22C22 25.2403 25.2397 22 29.2531 22V52ZM52 29.2529C52 15.7392 40.9084 7.08404 29.2531 7.08404V37.084C28.1168 37.084 26.2969 36.6698 24.6222 35.1203C22.8787 33.5069 22 31.2858 22 29.2529H52ZM29.2531 7.08404C29.5607 7.08404 30.7498 7.21818 32.1974 8.17144C33.4924 9.02422 34.5362 10.2266 35.386 11.6877L9.45334 26.7707C11.4687 30.2358 17.4904 37.084 29.2531 37.084V7.08404ZM35.3488 11.624C34.8643 10.8005 34.2059 9.85264 33.3173 8.89819L11.3602 29.3405C10.5341 28.4531 9.92878 27.5793 9.4906 26.8344L35.3488 11.624ZM33.2817 8.86013L15.5275 -10.0774L-6.35843 10.4411L11.3958 29.3786L33.2817 8.86013ZM15.5163 -10.0893C11.1025 -14.7869 4.35755 -16.2049 -1.46938 -13.9473L9.36888 14.0265C3.98364 16.113 -2.25721 14.8061 -6.3472 10.453L15.5163 -10.0893ZM-1.55786 -13.9127C-7.51137 -11.5625 -11.4156 -5.81214 -11.4156 0.577299H18.5844C18.5844 6.49267 14.9715 11.8152 9.45736 13.9919L-1.55786 -13.9127ZM-11.4156 0.577299C-11.4156 19.717 2.09386 29.6503 7.18567 33.6554L25.7328 10.0756C22.8495 7.80775 21.1794 6.40012 19.9931 4.81518C19.0995 3.62137 18.5844 2.4552 18.5844 0.577299H-11.4156ZM7.18452 33.6545C7.9483 34.2554 8.47333 34.6696 8.91681 35.0377C9.36505 35.4098 9.48783 35.537 9.4467 35.4951C9.4449 35.4932 8.88709 34.9435 8.27974 33.8964C7.64426 32.8008 6.65888 30.6437 6.65888 27.692H36.6589C36.6589 20.4304 32.1188 15.7656 30.8506 14.4743C29.0926 12.6842 26.921 11.0104 25.7339 10.0765L7.18452 33.6545ZM-6.15141 12.3525L10.5125 30.1267L32.3983 9.60818L15.7344 -8.1661L-6.15141 12.3525ZM8.7758 27.8817C11.0335 31.4537 17.335 38.2403 29.2531 38.2403V8.24031C29.2373 8.24031 29.4961 8.24071 29.9504 8.372C30.4058 8.50363 30.93 8.72992 31.4733 9.07494C32.5438 9.75469 33.4131 10.7112 34.1349 11.8532L8.7758 27.8817ZM29.2531 38.2403C27.8419 38.2403 25.7593 37.7443 23.8708 36.0214C21.9013 34.2245 20.8438 31.6945 20.8438 29.2529H50.8438C50.8438 16.2192 40.0315 8.24031 29.2531 8.24031V38.2403ZM20.8438 29.2529C20.8438 24.6026 24.6043 20.8437 29.2531 20.8437V50.8437C41.1701 50.8437 50.8438 41.1739 50.8438 29.2529H20.8438ZM29.2531 20.8437C29.9731 20.8437 31.8778 21.0085 33.9856 22.3834C36.166 23.8056 37.2251 25.647 37.6437 26.7091L9.73254 37.7077C11.1188 41.2257 13.5701 44.8847 17.5959 47.5106C21.5491 50.0892 25.7524 50.8437 29.2531 50.8437V20.8437ZM37.2862 25.8766C37.5565 26.4571 37.6819 26.8579 37.7158 26.9685C37.7627 27.1217 37.7796 27.2027 37.7833 27.2206C37.7879 27.2429 37.7926 27.2685 37.7976 27.3133C37.8022 27.3533 37.8151 27.4799 37.8151 27.692H7.81513C7.81513 31.2905 8.62319 35.3901 10.09 38.5402L37.2862 25.8766ZM37.8151 27.692C37.8151 20.831 34.0566 16.2047 32.1329 14.1474C30.1664 12.0444 27.726 10.172 26.4502 9.16815L7.89965 32.7452C8.73137 33.3996 9.27989 33.833 9.73836 34.2181C10.1967 34.603 10.2943 34.7165 10.2203 34.6374C10.1619 34.5749 9.61501 33.9937 9.05845 32.9195C8.45016 31.7455 7.81513 29.9448 7.81513 27.692H37.8151ZM26.4493 9.1674C20.9973 4.87851 19.9069 3.31441 19.758 1.09052L-10.175 3.09583C-9.03356 20.1332 3.36947 29.1814 7.90061 32.7459L26.4493 9.1674ZM-11.5312 29.4842C-11.5312 39.9998 -3.00053 48.5312 7.51562 48.5312V18.5312C13.5687 18.5312 18.4688 23.4319 18.4688 29.4842H-11.5312ZM7.51562 48.5312C18.0318 48.5312 26.5625 39.9998 26.5625 29.4842H-3.4375C-3.4375 23.4319 1.4626 18.5312 7.51562 18.5312V48.5312ZM26.5625 29.4842C26.5625 18.9686 18.0318 10.4372 7.51562 10.4372V40.4372C1.4626 40.4372 -3.4375 35.5365 -3.4375 29.4842H26.5625ZM7.51562 10.4372C-3.00053 10.4372 -11.5312 18.9686 -11.5312 29.4842H18.4688C18.4688 35.5365 13.5687 40.4372 7.51562 40.4372V10.4372ZM-4.59375 29.4842C-4.59375 22.7909 0.828251 17.3749 7.51562 17.3749V47.3749C17.3896 47.3749 25.4062 39.3666 25.4062 29.4842H-4.59375ZM7.51562 17.3749C14.203 17.3749 19.625 22.7909 19.625 29.4842H-10.375C-10.375 39.3666 -2.35837 47.3749 7.51562 47.3749V17.3749ZM19.625 29.4842C19.625 36.1776 14.203 41.5935 7.51562 41.5935V11.5935C-2.35837 11.5935 -10.375 19.6018 -10.375 29.4842H19.625ZM7.51562 41.5935C0.828251 41.5935 -4.59375 36.1776 -4.59375 29.4842H25.4062C25.4062 19.6018 17.3896 11.5935 7.51562 11.5935V41.5935ZM13.7516 6.80369C7.41118 12.5848 6.92352 22.4359 12.7355 28.8104L34.9044 8.59806C40.2862 14.5008 39.8332 23.6211 33.9645 28.9721L13.7516 6.80369ZM12.7625 28.84C15.8192 32.1747 20.0379 33.8927 24.2477 33.8927V3.89271C28.1431 3.89271 32.0495 5.48352 34.8773 8.5685L12.7625 28.84ZM24.2477 33.8927C27.9682 33.8927 31.7722 32.5495 34.7734 29.7984L14.5014 7.68404C17.2805 5.13644 20.8048 3.89271 24.2477 3.89271V33.8927ZM34.7385 29.8303C40.0952 24.9508 48.4156 15.792 48.4156 0.577299H18.4156C18.4156 2.30046 18.0124 3.36531 17.5327 4.20564C16.9594 5.20969 16.0491 6.27407 14.5362 7.65219L34.7385 29.8303ZM48.4156 0.577299C48.4156 -5.77472 44.5445 -11.5618 38.5329 -13.9225L27.5676 14.0017C21.9977 11.8146 18.4156 6.45524 18.4156 0.577299H48.4156ZM38.4301 -13.9624C32.6502 -16.1832 25.9415 -14.8003 21.5203 -10.1281L43.3106 10.4918C39.2155 14.8194 33.011 16.0936 27.6704 14.0417L38.4301 -13.9624ZM21.4732 -10.0781L8.84692 3.38791L30.7315 23.9078L43.3578 10.4418L21.4732 -10.0781ZM8.86131 3.37259C2.9683 9.6399 3.25453 19.5419 9.59642 25.4443L30.0352 3.48401C35.91 8.95174 36.1731 18.1206 30.7171 23.9231L8.86131 3.37259ZM9.56927 25.419C15.7845 31.2324 25.6233 31.027 31.5596 24.7157L9.70699 4.16177C15.2039 -1.68242 24.312 -1.86926 30.0624 3.50934L9.56927 25.419ZM31.5757 24.6985L43.1544 12.3495L21.2696 -8.1701L9.69087 4.17893L31.5757 24.6985ZM17.2428 1.12791C17.1676 2.29859 16.8552 3.08695 16.4191 3.80269C15.9043 4.64764 15.0981 5.57664 13.7545 6.80108L33.9616 28.9747C38.7354 24.6244 46.3192 16.4661 47.1811 3.0515L17.2428 1.12791ZM18.0553 35.8272C26.0329 32.723 30.0374 23.7399 26.9439 15.7093L-1.05089 26.4931C-3.91537 19.0568 -0.20685 10.7421 7.17642 7.86915L18.0553 35.8272ZM26.9439 15.7093C23.8703 7.73003 14.8204 3.59275 6.6649 6.82964L17.732 34.7137C10.1708 37.7147 1.79384 33.878 -1.05089 26.4931L26.9439 15.7093ZM6.76483 6.79039C6.12744 7.03811 5.53159 7.30597 5.31018 7.40448L17.5049 34.8141C17.5748 34.783 17.6253 34.7606 17.6698 34.741C17.7132 34.7218 17.7391 34.7105 17.754 34.7042C17.7686 34.6978 17.7645 34.6997 17.7463 34.7072C17.7282 34.7147 17.6887 34.7309 17.632 34.7529L6.76483 6.79039ZM5.31688 7.4015C4.7487 7.65396 4.96227 7.54339 5.30923 7.43552C5.75426 7.29717 6.61355 7.08404 7.74687 7.08404V37.084C12.7896 37.084 16.7033 35.1703 17.4982 34.8171L5.31688 7.4015ZM7.74687 7.08404C-3.90843 7.08404 -15 15.7392 -15 29.2529H15C15 31.2858 14.1213 33.5069 12.3778 35.1203C10.7031 36.6698 8.88319 37.084 7.74687 37.084V7.08404ZM-15 29.2529C-15 41.8082 -4.80891 52 7.74687 52V22C11.7603 22 15 25.2403 15 29.2529H-15ZM7.74687 52C11.6218 52 16.0034 51.118 20.0488 48.4813C24.1583 45.8029 26.8039 42.04 28.3197 38.1838L0.399257 27.2089C0.796934 26.1972 1.7689 24.5861 3.66787 23.3484C5.50286 22.1524 7.1372 22 7.74687 22V52ZM27.9539 39.0361C29.4509 35.8259 29.7523 32.4934 29.8521 31.4049C30.0058 29.7289 30.0312 28.1544 30.0312 27.1717H0.03125C0.03125 27.4157 0.0276918 27.6935 0.0178165 27.9745C0.00769491 28.2624 -0.00712921 28.4969 -0.0225601 28.6652C-0.026104 28.7038 -0.0292346 28.734 -0.0316954 28.756C-0.0329087 28.7669 -0.033894 28.7752 -0.0346054 28.781C-0.0349581 28.7839 -0.0352326 28.786 -0.035422 28.7875C-0.0356114 28.789 -0.0357083 28.7897 -0.0357049 28.7897C-0.0357016 28.7896 -0.0355895 28.7888 -0.0353601 28.7872C-0.0351307 28.7856 -0.0347743 28.7831 -0.0342811 28.7798C-0.0333072 28.7732 -0.0317188 28.7628 -0.0294244 28.7488C-0.0249788 28.7216 -0.0169922 28.6751 -0.00441642 28.6114C0.0182136 28.4969 0.0695914 28.2555 0.167587 27.9228C0.260424 27.6076 0.441884 27.0496 0.765066 26.3566L27.9539 39.0361ZM30.0312 27.1717C30.0312 30.4807 28.9296 32.8918 28.4005 33.9174C27.7958 35.0893 27.1659 35.9123 26.8337 36.3226C26.1725 37.1389 25.6029 37.6405 25.5033 37.7291C25.2504 37.9539 25.0972 38.0578 25.4565 37.7876L7.42262 13.813C7.25463 13.9394 6.3973 14.5735 5.5721 15.307C5.18627 15.65 4.36349 16.4006 3.52065 17.4413C3.09753 17.9637 2.39469 18.8927 1.73982 20.162C1.16045 21.2849 0.03125 23.7848 0.03125 27.1717H30.0312ZM25.4443 37.7968C25.597 37.6821 27.4434 36.3698 28.9948 34.6219L6.55761 14.7078C6.85733 14.3701 7.11275 14.1218 7.27808 13.9681C7.44602 13.8121 7.57122 13.7072 7.62563 13.6624C7.68095 13.6169 7.70166 13.6018 7.66264 13.6318C7.61927 13.6651 7.56157 13.7087 7.43487 13.8038L25.4443 37.7968ZM29.0144 34.5998C34.6914 28.1781 34.1243 18.3507 27.6898 12.6345L7.76542 35.0625C1.80728 29.7695 1.28416 20.6729 6.53802 14.7299L29.0144 34.5998ZM27.7201 12.6615C21.2319 6.86606 11.3678 7.55151 5.69706 13.9351L28.1256 33.859C22.878 39.7663 13.7469 40.4055 7.7351 35.0355L27.7201 12.6615ZM5.66735 13.9687C6.04478 13.5412 6.36329 13.2384 6.54039 13.0761C6.72684 12.9051 6.86433 12.7918 6.91634 12.7494C6.97157 12.7044 6.99224 12.6893 6.95212 12.7201C6.90832 12.7536 6.85363 12.7948 6.73333 12.8852L24.7537 36.87C24.9237 36.7422 25.3932 36.3921 25.8668 36.0062C26.285 35.6654 27.2096 34.8965 28.1553 33.8255L5.66735 13.9687ZM6.71801 12.8968C6.53736 13.0329 4.9036 14.2054 3.48002 15.7316C1.98356 17.3359 -1.125 21.2439 -1.125 27.1717H28.875C28.875 32.2114 26.2203 35.3343 25.4179 36.1945C24.6883 36.9766 23.9888 37.4462 24.769 36.8584L6.71801 12.8968ZM-1.125 27.1717C-1.125 27.9775 -1.16258 28.46 -1.18076 28.6205C-1.18978 28.7002 -1.17766 28.5524 -1.10917 28.2401C-1.0733 28.0765 -1.00823 27.8045 -0.899744 27.4544C-0.795944 27.1195 -0.611759 26.5805 -0.307973 25.926L26.904 38.5556C28.1711 35.8254 28.5041 33.0968 28.6287 31.9965C28.8074 30.4188 28.875 28.7616 28.875 27.1717H-1.125ZM-0.659719 26.747C-0.219947 25.6297 0.86219 23.7833 3.04063 22.3693C5.13888 21.0073 7.02928 20.8437 7.74687 20.8437V50.8437C11.2453 50.8437 15.4343 50.0904 19.3744 47.5329C23.3948 44.9233 25.8621 41.2754 27.2558 37.7345L-0.659719 26.747ZM7.74687 20.8437C12.3974 20.8437 16.1562 24.6032 16.1562 29.2529H-13.8438C-13.8438 41.1711 -4.17181 50.8437 7.74687 50.8437V20.8437ZM16.1562 29.2529C16.1562 31.693 15.0994 34.2237 13.1284 36.0216C11.2391 37.7451 9.15622 38.2403 7.74687 38.2403V8.24031C-3.02956 8.24031 -13.8438 16.2163 -13.8438 29.2529H16.1562ZM7.74687 38.2403C12.9983 38.2403 17.0385 36.2862 17.9833 35.8652L5.77299 8.46247C5.21245 8.71224 5.37779 8.62321 5.66701 8.53432C6.03666 8.42072 6.77033 8.24031 7.74687 8.24031V38.2403ZM18.0038 35.856C18.0603 35.8308 18.1024 35.812 18.137 35.7967C18.1713 35.7816 18.191 35.773 18.2006 35.7688C18.2101 35.7647 18.2037 35.7676 18.1848 35.7754C18.166 35.7832 18.1288 35.7984 18.0766 35.8188L7.15509 7.87746C6.55032 8.11385 6.00123 8.36034 5.75255 8.4716L18.0038 35.856ZM2.56806 19.6374C2.56806 28.436 9.70065 35.5693 18.5 35.5693V5.56931C26.2699 5.56931 32.5681 11.8682 32.5681 19.6374H2.56806ZM18.5 35.5693C27.2994 35.5693 34.4319 28.436 34.4319 19.6374H4.43194C4.43194 11.8682 10.7301 5.56931 18.5 5.56931V35.5693ZM34.4319 19.6374C34.4319 10.8387 27.2993 3.7054 18.5 3.7054V33.7054C10.7301 33.7054 4.43194 27.4066 4.43194 19.6374H34.4319ZM18.5 3.7054C9.7007 3.7054 2.56806 10.8387 2.56806 19.6374H32.5681C32.5681 27.4066 26.2699 33.7054 18.5 33.7054V3.7054Z" fill="#157408" mask="url(#path-1-inside-1)"/>
</svg>
