<svg width="38" height="32" viewBox="0 0 38 32" fill="none" xmlns="http://www.w3.org/2000/svg">
<path d="M31.9613 5.86039C30.3276 5.86039 29.0033 4.54849 29.0033 2.93019C29.0033 1.31189 30.3276 0 31.9613 0C33.5951 0 34.9194 1.31189 34.9194 2.93019C34.9194 4.54849 33.5951 5.86039 31.9613 5.86039Z" fill="#156C08"/>
<path d="M13.1947 6.25736C11.561 6.25736 10.2367 4.94547 10.2367 3.32717C10.2367 1.70886 11.561 0.396973 13.1947 0.396973C14.8285 0.396973 16.1528 1.70886 16.1528 3.32717C16.1528 4.94547 14.8285 6.25736 13.1947 6.25736Z" fill="#156C08"/>
<path d="M2.27293 21.7401C3.59211 21.961 4.91791 22.2372 6.20283 22.6289C6.30921 22.0324 6.4228 21.4377 6.52136 20.84C4.9125 20.2125 3.65101 19.5344 3.43826 18.9016L7.28102 14.2831C7.28282 14.2676 7.43126 13.0108 7.49797 12.3971C6.71548 12.9835 5.93839 13.5764 5.16371 14.1753C4.38723 14.7754 3.36614 14.9296 2.60408 14.1753C1.97304 13.5484 1.82519 12.2423 2.60408 11.6398C3.2201 11.1641 7.84835 7.71185 8.97161 7.01472C10.3136 6.03779 12.6305 7.00579 13.0956 8.27086C14.627 9.86931 16.3825 11.229 18.1374 12.581C18.4276 12.8049 18.5887 13.1269 18.6452 13.4734C18.8549 13.2674 19.144 13.1132 19.5263 13.043C23.1298 12.3899 26.1859 10.5361 28.3182 7.56421C29.1337 6.39261 31.4908 6.14793 32.6261 7.28679C33.2397 7.90176 33.4357 8.66199 33.4681 9.45615C34.732 10.6289 36.0993 11.6892 37.4689 12.7441C38.249 13.3454 38.1012 14.6533 37.4689 15.279C36.7069 16.0339 35.687 15.8785 34.9087 15.279C34.2987 14.8087 33.6887 14.3366 33.0871 13.8556C32.8996 15.4618 32.6856 17.065 32.4639 18.6652C33.8431 20.3542 34.9333 22.3122 36.1606 24.0809C36.6492 24.7852 36.3703 25.6603 35.8781 26.2545C34.5938 27.8029 33.4074 29.4377 32.2114 31.054C30.8472 32.8971 27.7028 31.1129 29.0851 29.2424C30.1639 27.7838 31.2426 26.3188 32.3695 24.8924C31.6128 23.7231 30.8802 22.5158 30.0334 21.4085C29.8315 21.4371 29.6296 21.446 29.4318 21.4353C29.4216 21.4478 29.4144 21.4597 29.4042 21.4722C26.9978 24.2661 24.6768 27.1415 22.4471 30.0747C21.0612 31.8964 17.9162 30.1128 19.3213 28.2631C22.2806 24.3697 26.3145 19.4427 26.9305 18.845C26.8896 18.3092 27.207 16.281 27.5411 13.4026C25.4977 14.9451 23.1304 16.0226 20.4879 16.503C19.2943 16.7185 18.4595 15.8755 18.2612 14.9629C18.2203 15.0147 18.183 15.0719 18.1368 15.1171C17.3747 15.872 16.3548 15.716 15.5771 15.1171C14.7165 14.4533 13.8565 13.7877 13.0205 13.0942C12.9364 13.8568 12.8468 14.6182 12.7513 15.3796L14.7946 23.2493C14.7946 23.2493 14.4683 23.176 13.9322 23.0468C14.7484 25.3103 15.5086 27.5957 16.3771 29.8365C17.2148 31.9999 13.7141 32.9251 12.8853 30.7902C11.8149 28.0244 10.9423 25.1674 9.8707 22.3938C9.70542 23.2891 9.55638 24.1857 9.52933 25.0965C9.49087 26.5349 8.04308 27.2248 6.80563 26.6456C5.12225 25.8562 3.14497 25.5026 1.31435 25.196C-0.987457 24.812 -0.00963974 21.3567 2.27293 21.7401Z" fill="#156C08"/>
</svg>
