<svg width="30" height="30" viewBox="0 0 30 30" fill="none" xmlns="http://www.w3.org/2000/svg">
<mask id="path-1-inside-1" fill="white">
<path d="M23.9062 27.1868C25.7156 27.1868 27.1875 25.7149 27.1875 23.9056C27.1875 22.0962 25.7156 20.6243 23.9062 20.6243C22.0969 20.6243 20.625 22.0962 20.625 23.9056C20.625 25.7149 22.0969 27.1868 23.9062 27.1868ZM23.9062 21.5618C25.1981 21.5618 26.25 22.6128 26.25 23.9056C26.25 25.1984 25.1981 26.2493 23.9062 26.2493C22.6144 26.2493 21.5625 25.1984 21.5625 23.9056C21.5625 22.6128 22.6144 21.5618 23.9062 21.5618ZM17.5613 22.4524C17.5613 23.8128 17.8959 25.519 18.345 26.4846C19.2638 28.8162 21.0712 29.9993 23.7188 29.9993C27.1819 29.9993 30 27.1812 30 23.7181C30 20.3496 27.3581 17.9056 23.7188 17.9056C19.5816 17.9056 18.2316 15.6828 18.1781 15.5909C18.1594 15.559 18.1378 15.529 18.1125 15.5018L3.71719 0.147444C3.58594 0.00775682 3.38156 -0.0372432 3.2025 0.0321318C3.02437 0.102444 2.90625 0.275882 2.90625 0.468069C2.90625 9.51588 8.94 14.2634 13.3453 17.7284C15.7013 19.5818 17.5613 21.0443 17.5613 22.4524ZM3.885 1.69713L17.3962 16.1084C17.6475 16.5059 19.3125 18.8431 23.7188 18.8431C26.8153 18.8431 29.0625 20.8934 29.0625 23.7181C29.0625 26.6656 26.6653 29.0618 23.7188 29.0618C21.4641 29.0618 19.9912 28.1056 19.2066 26.1143C18.8634 25.3774 18.4988 23.8428 18.4988 22.4524C18.4988 20.5896 16.4803 19.0015 13.9256 16.9915C9.87844 13.8078 4.40812 9.50557 3.885 1.69713ZM2.8125 23.9056C2.8125 25.7149 4.28438 27.1868 6.09375 27.1868C7.90312 27.1868 9.375 25.7149 9.375 23.9056C9.375 22.0962 7.90312 20.6243 6.09375 20.6243C4.28438 20.6243 2.8125 22.0962 2.8125 23.9056ZM8.4375 23.9056C8.4375 25.1984 7.38562 26.2493 6.09375 26.2493C4.80188 26.2493 3.75 25.1984 3.75 23.9056C3.75 22.6128 4.80188 21.5618 6.09375 21.5618C7.38562 21.5618 8.4375 22.6128 8.4375 23.9056ZM19.3444 14.5034C19.1531 14.6778 19.1391 14.974 19.3134 15.1653C19.4062 15.2665 19.5328 15.3181 19.6603 15.3181C19.7728 15.3181 19.8863 15.2778 19.9762 15.1953C23.2903 12.1765 27.0938 7.77494 27.0938 0.468069C27.0938 0.275882 26.9766 0.102444 26.7975 0.0321318C26.6194 -0.0363057 26.415 0.00775682 26.2828 0.147444L16.0453 11.0656C15.8681 11.254 15.8775 11.5512 16.0669 11.7274C16.2553 11.9037 16.5516 11.8962 16.7297 11.7068L26.1178 1.69432C25.7184 7.90994 22.3247 11.7874 19.3444 14.5034ZM10.2291 17.7143C10.47 17.6206 10.59 17.3496 10.4972 17.1087C10.4044 16.8678 10.1316 16.7459 9.89062 16.8415C9.69281 16.9184 9.47906 17.0131 9.24938 17.1153C8.45813 17.4668 7.47281 17.9056 6.28125 17.9056C2.64187 17.9056 0 20.3496 0 23.7181C0 27.1812 2.81812 29.9993 6.28125 29.9993C8.92875 29.9993 10.7362 28.8162 11.6428 26.5099C12.1172 25.4928 12.1875 23.2662 12.1875 22.0306C12.1875 21.7784 12.9019 21.2403 13.3294 20.9187C13.7241 20.6224 14.1319 20.3149 14.4131 19.9981C14.5847 19.804 14.5669 19.5078 14.3737 19.3362C14.1806 19.1637 13.8834 19.1824 13.7119 19.3756C13.4925 19.624 13.1231 19.9015 12.765 20.1706C11.9859 20.7574 11.25 21.3106 11.25 22.0306C11.25 23.9731 11.0794 25.5003 10.7822 26.1406C10.0087 28.1056 8.53594 29.0618 6.28125 29.0618C3.33469 29.0618 0.9375 26.6646 0.9375 23.7181C0.9375 20.8924 3.18469 18.8431 6.28125 18.8431C7.6725 18.8431 8.80406 18.3387 9.63094 17.9703C9.84469 17.8746 10.0444 17.7865 10.2291 17.7143ZM14.2444 15.9218C14.2444 16.3392 14.5827 16.6774 15 16.6774C15.4173 16.6774 15.7556 16.3392 15.7556 15.9218C15.7556 15.5045 15.4173 15.1662 15 15.1662C14.5827 15.1662 14.2444 15.5045 14.2444 15.9218Z"/>
</mask>
<path d="M23.9062 27.1868C25.7156 27.1868 27.1875 25.7149 27.1875 23.9056C27.1875 22.0962 25.7156 20.6243 23.9062 20.6243C22.0969 20.6243 20.625 22.0962 20.625 23.9056C20.625 25.7149 22.0969 27.1868 23.9062 27.1868ZM23.9062 21.5618C25.1981 21.5618 26.25 22.6128 26.25 23.9056C26.25 25.1984 25.1981 26.2493 23.9062 26.2493C22.6144 26.2493 21.5625 25.1984 21.5625 23.9056C21.5625 22.6128 22.6144 21.5618 23.9062 21.5618ZM17.5613 22.4524C17.5613 23.8128 17.8959 25.519 18.345 26.4846C19.2638 28.8162 21.0712 29.9993 23.7188 29.9993C27.1819 29.9993 30 27.1812 30 23.7181C30 20.3496 27.3581 17.9056 23.7188 17.9056C19.5816 17.9056 18.2316 15.6828 18.1781 15.5909C18.1594 15.559 18.1378 15.529 18.1125 15.5018L3.71719 0.147444C3.58594 0.00775682 3.38156 -0.0372432 3.2025 0.0321318C3.02437 0.102444 2.90625 0.275882 2.90625 0.468069C2.90625 9.51588 8.94 14.2634 13.3453 17.7284C15.7013 19.5818 17.5613 21.0443 17.5613 22.4524ZM3.885 1.69713L17.3962 16.1084C17.6475 16.5059 19.3125 18.8431 23.7188 18.8431C26.8153 18.8431 29.0625 20.8934 29.0625 23.7181C29.0625 26.6656 26.6653 29.0618 23.7188 29.0618C21.4641 29.0618 19.9912 28.1056 19.2066 26.1143C18.8634 25.3774 18.4988 23.8428 18.4988 22.4524C18.4988 20.5896 16.4803 19.0015 13.9256 16.9915C9.87844 13.8078 4.40812 9.50557 3.885 1.69713ZM2.8125 23.9056C2.8125 25.7149 4.28438 27.1868 6.09375 27.1868C7.90312 27.1868 9.375 25.7149 9.375 23.9056C9.375 22.0962 7.90312 20.6243 6.09375 20.6243C4.28438 20.6243 2.8125 22.0962 2.8125 23.9056ZM8.4375 23.9056C8.4375 25.1984 7.38562 26.2493 6.09375 26.2493C4.80188 26.2493 3.75 25.1984 3.75 23.9056C3.75 22.6128 4.80188 21.5618 6.09375 21.5618C7.38562 21.5618 8.4375 22.6128 8.4375 23.9056ZM19.3444 14.5034C19.1531 14.6778 19.1391 14.974 19.3134 15.1653C19.4062 15.2665 19.5328 15.3181 19.6603 15.3181C19.7728 15.3181 19.8863 15.2778 19.9762 15.1953C23.2903 12.1765 27.0938 7.77494 27.0938 0.468069C27.0938 0.275882 26.9766 0.102444 26.7975 0.0321318C26.6194 -0.0363057 26.415 0.00775682 26.2828 0.147444L16.0453 11.0656C15.8681 11.254 15.8775 11.5512 16.0669 11.7274C16.2553 11.9037 16.5516 11.8962 16.7297 11.7068L26.1178 1.69432C25.7184 7.90994 22.3247 11.7874 19.3444 14.5034ZM10.2291 17.7143C10.47 17.6206 10.59 17.3496 10.4972 17.1087C10.4044 16.8678 10.1316 16.7459 9.89062 16.8415C9.69281 16.9184 9.47906 17.0131 9.24938 17.1153C8.45813 17.4668 7.47281 17.9056 6.28125 17.9056C2.64187 17.9056 0 20.3496 0 23.7181C0 27.1812 2.81812 29.9993 6.28125 29.9993C8.92875 29.9993 10.7362 28.8162 11.6428 26.5099C12.1172 25.4928 12.1875 23.2662 12.1875 22.0306C12.1875 21.7784 12.9019 21.2403 13.3294 20.9187C13.7241 20.6224 14.1319 20.3149 14.4131 19.9981C14.5847 19.804 14.5669 19.5078 14.3737 19.3362C14.1806 19.1637 13.8834 19.1824 13.7119 19.3756C13.4925 19.624 13.1231 19.9015 12.765 20.1706C11.9859 20.7574 11.25 21.3106 11.25 22.0306C11.25 23.9731 11.0794 25.5003 10.7822 26.1406C10.0087 28.1056 8.53594 29.0618 6.28125 29.0618C3.33469 29.0618 0.9375 26.6646 0.9375 23.7181C0.9375 20.8924 3.18469 18.8431 6.28125 18.8431C7.6725 18.8431 8.80406 18.3387 9.63094 17.9703C9.84469 17.8746 10.0444 17.7865 10.2291 17.7143ZM14.2444 15.9218C14.2444 16.3392 14.5827 16.6774 15 16.6774C15.4173 16.6774 15.7556 16.3392 15.7556 15.9218C15.7556 15.5045 15.4173 15.1662 15 15.1662C14.5827 15.1662 14.2444 15.5045 14.2444 15.9218Z" fill="#157408"/>
<path d="M18.345 26.4846L22.9969 24.6516L22.9419 24.5121L22.8787 24.3762L18.345 26.4846ZM18.1781 15.5909L22.5002 13.077L22.494 13.0664L22.4878 13.0558L18.1781 15.5909ZM18.1125 15.5018L21.772 12.0947L21.7661 12.0884L21.7601 12.082L18.1125 15.5018ZM3.71719 0.147444L7.36481 -3.27234L7.36106 -3.27633L3.71719 0.147444ZM3.2025 0.0321318L1.39616 -4.63018L1.3814 -4.62446L1.36667 -4.61864L3.2025 0.0321318ZM13.3453 17.7284L16.4368 13.7987L16.4365 13.7984L13.3453 17.7284ZM17.3962 16.1084L21.6227 13.4369L21.3689 13.0352L21.0438 12.6886L17.3962 16.1084ZM19.2066 26.1143L23.8584 24.2812L23.803 24.1406L23.7392 24.0037L19.2066 26.1143ZM13.9256 16.9915L17.0173 13.062L17.017 13.0617L13.9256 16.9915ZM19.3444 14.5034L15.9766 10.8077L15.9756 10.8086L19.3444 14.5034ZM19.3134 15.1653L15.6186 18.534L15.6277 18.5439L19.3134 15.1653ZM19.9762 15.1953L16.6092 11.4989L16.6034 11.5042L16.5976 11.5095L19.9762 15.1953ZM26.7975 0.0321318L28.625 -4.62192L28.6079 -4.62864L28.5907 -4.63523L26.7975 0.0321318ZM26.2828 0.147444L22.6511 -3.28925L22.6433 -3.28093L22.6354 -3.27257L26.2828 0.147444ZM16.0453 11.0656L19.6879 14.4907L19.6927 14.4856L16.0453 11.0656ZM16.0669 11.7274L19.4824 8.07578L19.4733 8.06735L16.0669 11.7274ZM16.7297 11.7068L20.3717 15.1325L20.3771 15.1268L16.7297 11.7068ZM26.1178 1.69432L31.1075 2.01493L32.001 -11.8901L22.4704 -1.72566L26.1178 1.69432ZM9.89062 16.8415L11.7018 21.5019L11.7185 21.4955L11.7351 21.4889L9.89062 16.8415ZM9.24938 17.1153L11.2796 21.6845L11.2818 21.6835L9.24938 17.1153ZM11.6428 26.5099L7.11136 24.3967L7.046 24.5368L6.98942 24.6807L11.6428 26.5099ZM13.3294 20.9187L10.3279 16.9198L10.3238 16.9229L13.3294 20.9187ZM14.4131 19.9981L18.1526 23.3171L18.1591 23.3098L14.4131 19.9981ZM14.3737 19.3362L11.0429 23.0653L11.0531 23.0742L14.3737 19.3362ZM13.7119 19.3756L9.97383 16.0549L9.96887 16.0605L9.96392 16.0661L13.7119 19.3756ZM12.765 20.1706L9.76165 16.1731L9.75655 16.1769L12.765 20.1706ZM10.7822 26.1406L6.24687 24.0356L6.18417 24.1707L6.12962 24.3093L10.7822 26.1406ZM9.63094 17.9703L11.666 22.5374L11.6728 22.5343L9.63094 17.9703ZM23.9062 32.1868C28.477 32.1868 32.1875 28.4764 32.1875 23.9056H22.1875C22.1875 22.9535 22.9542 22.1868 23.9062 22.1868V32.1868ZM32.1875 23.9056C32.1875 19.3348 28.477 15.6243 23.9062 15.6243V25.6243C22.9542 25.6243 22.1875 24.8576 22.1875 23.9056H32.1875ZM23.9062 15.6243C19.3355 15.6243 15.625 19.3348 15.625 23.9056H25.625C25.625 24.8576 24.8583 25.6243 23.9062 25.6243V15.6243ZM15.625 23.9056C15.625 28.4764 19.3355 32.1868 23.9062 32.1868V22.1868C24.8583 22.1868 25.625 22.9535 25.625 23.9056H15.625ZM23.9062 26.5618C22.438 26.5618 21.25 25.3755 21.25 23.9056H31.25C31.25 19.85 27.9582 16.5618 23.9062 16.5618V26.5618ZM21.25 23.9056C21.25 22.4357 22.438 21.2493 23.9062 21.2493V31.2493C27.9582 31.2493 31.25 27.9611 31.25 23.9056H21.25ZM23.9062 21.2493C25.3745 21.2493 26.5625 22.4357 26.5625 23.9056H16.5625C16.5625 27.9611 19.8543 31.2493 23.9062 31.2493V21.2493ZM26.5625 23.9056C26.5625 25.3755 25.3745 26.5618 23.9062 26.5618V16.5618C19.8543 16.5618 16.5625 19.85 16.5625 23.9056H26.5625ZM12.5613 22.4524C12.5613 24.3596 12.9868 26.8201 13.8113 28.593L22.8787 24.3762C22.8952 24.4117 22.8704 24.3634 22.8246 24.2098C22.7818 24.0662 22.7351 23.879 22.6924 23.66C22.6031 23.2018 22.5613 22.7591 22.5613 22.4524H12.5613ZM13.6931 28.3177C14.4676 30.2831 15.7463 32.0576 17.6464 33.3005C19.5269 34.5307 21.6468 34.9993 23.7188 34.9993V24.9993C23.1432 24.9993 23.0356 24.8764 23.1208 24.9321C23.1523 24.9527 23.1641 24.9701 23.1522 24.9548C23.1364 24.9344 23.0743 24.8481 22.9969 24.6516L13.6931 28.3177ZM23.7188 34.9993C29.9433 34.9993 35 29.9426 35 23.7181H25C25 24.4198 24.4205 24.9993 23.7188 24.9993V34.9993ZM35 23.7181C35 17.2298 29.7469 12.9056 23.7188 12.9056V22.9056C24.4116 22.9056 24.7297 23.1273 24.8283 23.2186C24.884 23.2701 24.9184 23.321 24.9425 23.3768C24.9662 23.4315 25 23.537 25 23.7181H35ZM23.7188 12.9056C23.1377 12.9056 22.7572 12.8284 22.5337 12.7623C22.3111 12.6964 22.1998 12.6284 22.1669 12.6068C22.0913 12.557 22.2327 12.617 22.5002 13.077L13.856 18.1047C14.5593 19.3139 17.3615 22.9056 23.7188 22.9056V12.9056ZM22.4878 13.0558C22.3153 12.7625 22.0831 12.4289 21.772 12.0947L14.453 18.9089C14.1925 18.6291 14.0035 18.3555 13.8685 18.126L22.4878 13.0558ZM21.7601 12.082L7.3648 -3.27234L0.069571 3.56722L14.4649 18.9216L21.7601 12.082ZM7.36106 -3.27633C5.81251 -4.92442 3.44387 -5.42353 1.39616 -4.63018L5.00884 4.69444C3.31926 5.34904 1.35936 4.93994 0.0733169 3.57122L7.36106 -3.27633ZM1.36667 -4.61864C-0.722701 -3.79389 -2.09375 -1.77499 -2.09375 0.468069H7.90625C7.90625 2.32675 6.77145 3.99878 5.03833 4.68291L1.36667 -4.61864ZM-2.09375 0.468069C-2.09375 12.1761 5.96269 18.2829 10.2542 21.6584L16.4365 13.7984C11.9173 10.2439 7.90625 6.85567 7.90625 0.468069H-2.09375ZM10.2538 21.6581C10.8552 22.1312 11.3588 22.5278 11.8044 22.8977C12.2516 23.2689 12.5596 23.5472 12.7695 23.7609C12.9925 23.988 12.9868 24.0243 12.9087 23.8896C12.8213 23.7388 12.5613 23.2291 12.5613 22.4524H22.5613C22.5613 19.6173 20.774 17.6397 19.904 16.7539C18.8708 15.7018 17.5262 14.6557 16.4368 13.7987L10.2538 21.6581ZM0.237403 5.11693L13.7487 19.5282L21.0438 12.6886L7.5326 -1.72267L0.237403 5.11693ZM13.1698 18.7798C14.0703 20.2046 17.1513 23.8431 23.7188 23.8431V13.8431C22.4542 13.8431 21.8677 13.5233 21.6796 13.4038C21.4484 13.2571 21.4561 13.1733 21.6227 13.4369L13.1698 18.7798ZM23.7188 23.8431C23.9406 23.8431 24.0773 23.8795 24.1424 23.9033C24.2072 23.927 24.2104 23.941 24.182 23.9151C24.1517 23.8875 24.1131 23.839 24.0856 23.7765C24.0574 23.7124 24.0625 23.683 24.0625 23.7181H34.0625C34.0625 17.71 29.135 13.8431 23.7188 13.8431V23.8431ZM24.0625 23.7181C24.0625 23.9036 23.9045 24.0618 23.7188 24.0618V34.0618C29.4262 34.0618 34.0625 29.4276 34.0625 23.7181H24.0625ZM23.7188 24.0618C23.5048 24.0618 23.418 24.0388 23.4236 24.0403C23.4375 24.0438 23.5252 24.07 23.643 24.1469C23.6988 24.1833 23.7505 24.224 23.7957 24.2663C23.8408 24.3083 23.8725 24.3453 23.8924 24.3711C23.932 24.4229 23.9094 24.4107 23.8584 24.2812L14.5547 27.9475C15.2479 29.7065 16.3973 31.36 18.1798 32.5227C19.9381 33.6695 21.888 34.0618 23.7188 34.0618V24.0618ZM23.7392 24.0037C23.7788 24.0887 23.7693 24.0844 23.7321 23.9628C23.6992 23.8553 23.659 23.7031 23.6208 23.5178C23.5404 23.1285 23.4988 22.7415 23.4988 22.4524H13.4988C13.4988 24.4707 13.9829 26.741 14.6739 28.225L23.7392 24.0037ZM23.4988 22.4524C23.4988 19.6169 21.9487 17.5668 20.8223 16.3621C19.6815 15.1423 18.1948 13.9884 17.0173 13.062L10.8339 20.921C11.4873 21.4351 12.0265 21.8599 12.5023 22.2596C12.9781 22.6592 13.3002 22.9591 13.5181 23.1922C14.0396 23.7498 13.4988 23.4251 13.4988 22.4524H23.4988ZM17.017 13.0617C12.8163 9.75722 9.23153 6.70239 8.87382 1.36291L-1.10382 2.03136C-0.415284 12.3088 6.94053 17.8583 10.8342 20.9213L17.017 13.0617ZM-2.1875 23.9056C-2.1875 28.4764 1.52295 32.1868 6.09375 32.1868V22.1868C7.0458 22.1868 7.8125 22.9535 7.8125 23.9056H-2.1875ZM6.09375 32.1868C10.6645 32.1868 14.375 28.4764 14.375 23.9056H4.375C4.375 22.9535 5.1417 22.1868 6.09375 22.1868V32.1868ZM14.375 23.9056C14.375 19.3348 10.6645 15.6243 6.09375 15.6243V25.6243C5.1417 25.6243 4.375 24.8576 4.375 23.9056H14.375ZM6.09375 15.6243C1.52295 15.6243 -2.1875 19.3348 -2.1875 23.9056H7.8125C7.8125 24.8576 7.0458 25.6243 6.09375 25.6243V15.6243ZM3.4375 23.9056C3.4375 22.4357 4.6255 21.2493 6.09375 21.2493V31.2493C10.1457 31.2493 13.4375 27.9611 13.4375 23.9056H3.4375ZM6.09375 21.2493C7.562 21.2493 8.75 22.4357 8.75 23.9056H-1.25C-1.25 27.9611 2.04175 31.2493 6.09375 31.2493V21.2493ZM8.75 23.9056C8.75 25.3755 7.562 26.5618 6.09375 26.5618V16.5618C2.04175 16.5618 -1.25 19.85 -1.25 23.9056H8.75ZM6.09375 26.5618C4.6255 26.5618 3.4375 25.3755 3.4375 23.9056H13.4375C13.4375 19.85 10.1457 16.5618 6.09375 16.5618V26.5618ZM15.9756 10.8086C13.7495 12.8383 13.5786 16.2965 15.6187 18.534L23.0082 11.7965C24.6995 13.6515 24.5568 16.5172 22.7131 18.1982L15.9756 10.8086ZM15.6277 18.5439C16.7013 19.7151 18.182 20.3181 19.6603 20.3181V10.3181C20.8836 10.3181 22.1112 10.8179 22.9992 11.7866L15.6277 18.5439ZM19.6603 20.3181C20.9667 20.3181 22.3015 19.8466 23.3549 18.881L16.5976 11.5095C17.471 10.7089 18.5789 10.3181 19.6603 10.3181V20.3181ZM23.3433 18.8916C27.0804 15.4875 32.0938 9.84257 32.0938 0.468069H22.0938C22.0938 5.70732 19.5002 8.86553 16.6092 11.4989L23.3433 18.8916ZM32.0938 0.468069C32.0938 -1.76251 30.7343 -3.79367 28.625 -4.62192L24.97 4.68619C23.2188 3.99855 22.0938 2.31428 22.0938 0.468069H32.0938ZM28.5907 -4.63523C26.5593 -5.41575 24.2027 -4.92887 22.6511 -3.28925L29.9145 3.58414C28.6273 4.94438 26.6795 5.34314 25.0042 4.69949L28.5907 -4.63523ZM22.6354 -3.27257L12.3979 7.64555L19.6927 14.4856L29.9302 3.56746L22.6354 -3.27257ZM12.4027 7.64044C10.334 9.84053 10.4349 13.3163 12.6605 15.3875L19.4733 8.06735C21.3201 9.78614 21.4023 12.6675 19.6879 14.4907L12.4027 7.64044ZM12.6514 15.3791C14.8341 17.4206 18.2881 17.3478 20.3717 15.1325L13.0876 8.28112C14.815 6.44463 17.6765 6.38677 19.4823 8.0758L12.6514 15.3791ZM20.3771 15.1268L29.7652 5.1143L22.4704 -1.72566L13.0823 8.28684L20.3771 15.1268ZM21.1281 1.37371C20.8518 5.67314 18.5909 8.42532 15.9766 10.8077L22.7122 18.199C26.0585 15.1496 30.585 10.1467 31.1075 2.01493L21.1281 1.37371ZM12.0422 22.374C14.8432 21.2841 16.2488 18.1302 15.163 15.3114L5.8314 18.906C4.93117 16.5691 6.09679 13.957 8.41596 13.0546L12.0422 22.374ZM15.163 15.3114C14.0837 12.5097 10.9064 11.0589 8.04615 12.1942L11.7351 21.4889C9.35669 22.4328 6.72502 21.2258 5.8314 18.906L15.163 15.3114ZM8.07946 12.1811C7.75051 12.3089 7.42602 12.454 7.21695 12.547L11.2818 21.6835C11.5321 21.5722 11.6351 21.5279 11.7018 21.5019L8.07946 12.1811ZM7.21919 12.546C6.79681 12.7336 6.60645 12.8131 6.43108 12.8677C6.2884 12.912 6.25434 12.9056 6.28125 12.9056V22.9056C8.66383 22.9056 10.5486 22.0093 11.2796 21.6845L7.21919 12.546ZM6.28125 12.9056C0.25307 12.9056 -5 17.2298 -5 23.7181H5C5 23.537 5.03377 23.4315 5.05747 23.3768C5.08163 23.321 5.11602 23.2701 5.17166 23.2186C5.27029 23.1273 5.58839 22.9056 6.28125 22.9056V12.9056ZM-5 23.7181C-5 29.9426 0.0567001 34.9993 6.28125 34.9993V24.9993C5.57955 24.9993 5 24.4198 5 23.7181H-5ZM6.28125 34.9993C8.35241 34.9993 10.4688 34.5312 12.345 33.3083C14.2425 32.0716 15.524 30.3036 16.2962 28.3391L6.98942 24.6807C6.91671 24.8657 6.85921 24.9442 6.84723 24.9596C6.83906 24.9701 6.85321 24.9512 6.88476 24.9306C6.9687 24.8759 6.85759 24.9993 6.28125 24.9993V34.9993ZM16.1743 28.6232C16.813 27.2537 16.9936 25.6652 17.0722 24.8088C17.1687 23.7565 17.1875 22.722 17.1875 22.0306H7.1875C7.1875 22.5748 7.17119 23.2713 7.11394 23.8955C7.08539 24.2069 7.05216 24.4372 7.02283 24.5858C6.98496 24.7774 6.98679 24.6638 7.11136 24.3967L16.1743 28.6232ZM17.1875 22.0306C17.1875 23.1151 16.8268 23.8976 16.6624 24.2162C16.4729 24.5836 16.2803 24.8326 16.1913 24.9426C16.0899 25.0678 16.0097 25.1501 15.9761 25.1838C15.9562 25.2037 15.9414 25.2178 15.9329 25.2257C15.9285 25.2299 15.9252 25.2329 15.9231 25.2348C15.9211 25.2367 15.92 25.2377 15.9199 25.2377C15.9199 25.2377 15.9208 25.237 15.9226 25.2354C15.9244 25.2338 15.9269 25.2316 15.9303 25.2287C15.9372 25.2228 15.9467 25.2149 15.9589 25.2049C15.9838 25.1843 16.0156 25.1588 16.055 25.1279C16.1377 25.0631 16.225 24.9972 16.335 24.9145L10.3238 16.9229C10.1419 17.0597 9.68801 17.3976 9.27631 17.7636C9.07937 17.9387 8.74466 18.2483 8.42033 18.6487C8.25761 18.8497 8.0059 19.1846 7.77561 19.631C7.57049 20.0285 7.1875 20.883 7.1875 22.0306H17.1875ZM16.3309 24.9176C16.6142 24.7049 17.4699 24.0864 18.1526 23.3171L10.6736 16.679C10.7321 16.6131 10.7712 16.5766 10.7769 16.5714C10.7834 16.5653 10.7724 16.5759 10.7356 16.6062C10.6991 16.6362 10.6491 16.676 10.5783 16.7304C10.506 16.786 10.4282 16.8445 10.3279 16.9198L16.3309 24.9176ZM18.1591 23.3098C20.1526 21.0549 19.9531 17.6046 17.6944 15.5981L11.0531 23.0742C9.1807 21.4109 9.01679 18.5531 10.6671 16.6864L18.1591 23.3098ZM17.7045 15.6071C15.4281 13.5738 11.9651 13.8133 9.97383 16.0549L17.4499 22.6963C15.8018 24.5516 12.9331 24.7536 11.043 23.0652L17.7045 15.6071ZM9.96392 16.0661C10.0131 16.0104 10.0538 15.9681 10.0821 15.9398C10.1106 15.9112 10.1317 15.8914 10.143 15.8811C10.1633 15.8625 10.1632 15.8638 10.1321 15.8892C10.1021 15.9136 10.058 15.9485 9.99251 15.9986C9.92585 16.0497 9.85448 16.1033 9.76165 16.1731L15.7683 24.1681C15.9628 24.022 16.8247 23.4044 17.4598 22.6851L9.96392 16.0661ZM9.75655 16.1769C9.46694 16.3951 8.69931 16.9538 8.05908 17.6401C7.39457 18.3525 6.25 19.8426 6.25 22.0306H16.25C16.25 23.4985 15.4734 24.3521 15.3716 24.4612C15.2976 24.5405 15.2722 24.5537 15.3599 24.4821C15.45 24.4086 15.562 24.3235 15.7735 24.1642L9.75655 16.1769ZM6.25 22.0306C6.25 22.8711 6.21235 23.5428 6.1593 24.0112C6.13279 24.2453 6.10787 24.3795 6.09667 24.4306C6.0776 24.5176 6.10572 24.3397 6.24687 24.0356L15.3175 28.2455C15.8274 27.147 16.0072 25.9183 16.0958 25.1366C16.2023 24.1957 16.25 23.1325 16.25 22.0306H6.25ZM6.12962 24.3093C6.08346 24.4266 6.06557 24.4306 6.10945 24.3737C6.13126 24.3454 6.16464 24.3069 6.21073 24.2641C6.25706 24.2211 6.30923 24.1803 6.36493 24.1441C6.48221 24.068 6.56826 24.0427 6.57973 24.0398C6.58338 24.0388 6.49517 24.0618 6.28125 24.0618V34.0618C8.11124 34.0618 10.0563 33.67 11.8094 32.532C13.5893 31.3767 14.7425 29.7307 15.4348 27.9719L6.12962 24.3093ZM6.28125 24.0618C6.19163 24.0618 6.1114 24.0308 6.03995 23.9594C5.9685 23.8879 5.9375 23.8077 5.9375 23.7181H-4.0625C-4.0625 29.4261 0.573263 34.0618 6.28125 34.0618V24.0618ZM5.9375 23.7181C5.9375 23.6826 5.94265 23.7118 5.91448 23.7759C5.88693 23.8386 5.84819 23.8872 5.81779 23.915C5.78921 23.941 5.79233 23.927 5.85714 23.9033C5.92228 23.8795 6.05917 23.8431 6.28125 23.8431V13.8431C0.865685 13.8431 -4.0625 17.7084 -4.0625 23.7181H5.9375ZM6.28125 23.8431C8.851 23.8431 10.8641 22.8947 11.666 22.5374L7.59592 13.4031C6.74406 13.7827 6.49401 13.8431 6.28125 13.8431V23.8431ZM11.6728 22.5343C11.8915 22.4365 11.9903 22.3943 12.0493 22.3712L8.40885 13.0574C8.0985 13.1787 7.79787 13.3128 7.58911 13.4062L11.6728 22.5343ZM9.24438 15.9218C9.24438 19.1006 11.8212 21.6774 15 21.6774V11.6774C17.3441 11.6774 19.2444 13.5777 19.2444 15.9218H9.24438ZM15 21.6774C18.1788 21.6774 20.7556 19.1006 20.7556 15.9218H10.7556C10.7556 13.5777 12.6559 11.6774 15 11.6774V21.6774ZM20.7556 15.9218C20.7556 12.7431 18.1788 10.1662 15 10.1662V20.1662C12.6559 20.1662 10.7556 18.2659 10.7556 15.9218H20.7556ZM15 10.1662C11.8212 10.1662 9.24438 12.7431 9.24438 15.9218H19.2444C19.2444 18.2659 17.3441 20.1662 15 20.1662V10.1662Z" fill="#157408" mask="url(#path-1-inside-1)"/>
</svg>
